<svg width="18" height="18" viewBox="0 0 18 18" fill="none" xmlns="http://www.w3.org/2000/svg">
<path fill-rule="evenodd" clip-rule="evenodd" d="M5.39178 0.666504H12.6168C15.4418 0.666504 17.3334 2.64984 17.3334 5.59984V12.409C17.3334 15.3498 15.4418 17.3332 12.6168 17.3332H5.39178C2.56678 17.3332 0.666779 15.3498 0.666779 12.409V5.59984C0.666779 2.64984 2.56678 0.666504 5.39178 0.666504ZM8.52512 11.4916L12.4835 7.53331C12.7668 7.24998 12.7668 6.79165 12.4835 6.49998C12.2001 6.21665 11.7335 6.21665 11.4501 6.49998L8.00845 9.94165L6.55012 8.48331C6.26679 8.19998 5.80012 8.19998 5.51679 8.48331C5.23346 8.76665 5.23346 9.22498 5.51679 9.51665L7.50012 11.4916C7.64179 11.6333 7.82512 11.7 8.00845 11.7C8.20012 11.7 8.38345 11.6333 8.52512 11.4916Z" fill="#F7F7F8"/>
</svg>
